<svg xmlns="http://www.w3.org/2000/svg" width="39.183" height="39.183" viewBox="0 0 39.183 39.183"><defs><style>.a{fill:#fff;}</style></defs><path class="a" d="M35.739,4.592H32.154a7.893,7.893,0,0,0-.729-2.612A3.065,3.065,0,0,0,28.775,0a3.065,3.065,0,0,0-2.65,1.979A7.893,7.893,0,0,0,25.4,4.592H22.97a7.892,7.892,0,0,0-.729-2.612A3.065,3.065,0,0,0,19.592,0a3.065,3.065,0,0,0-2.65,1.979,7.893,7.893,0,0,0-.729,2.612H13.787a7.893,7.893,0,0,0-.729-2.612A3.065,3.065,0,0,0,10.408,0a3.065,3.065,0,0,0-2.65,1.979,7.893,7.893,0,0,0-.729,2.612H3.444A3.448,3.448,0,0,0,0,8.036v27.7a3.448,3.448,0,0,0,3.444,3.444h32.3a3.448,3.448,0,0,0,3.444-3.444V8.036A3.448,3.448,0,0,0,35.739,4.592ZM28.178,3.006c.294-.587.557-.71.6-.71s.3.123.6.71a5.386,5.386,0,0,1,.467,1.586H27.711A5.394,5.394,0,0,1,28.178,3.006Zm-9.184,0c.294-.587.557-.71.6-.71s.3.123.6.71a5.394,5.394,0,0,1,.467,1.586H18.528a5.4,5.4,0,0,1,.467-1.586Zm-9.184,0c.294-.587.557-.71.6-.71s.3.123.6.71a5.4,5.4,0,0,1,.467,1.586H9.344A5.4,5.4,0,0,1,9.811,3.006ZM3.444,6.888h8.028A5.4,5.4,0,0,1,11,8.473c-.294.587-.557.71-.6.71a1.148,1.148,0,0,0,0,2.3A3.065,3.065,0,0,0,13.058,9.5a7.893,7.893,0,0,0,.729-2.612h6.869a5.4,5.4,0,0,1-.467,1.586c-.294.587-.557.71-.6.71a1.148,1.148,0,0,0,0,2.3A3.065,3.065,0,0,0,22.242,9.5a7.893,7.893,0,0,0,.729-2.612h6.869a5.4,5.4,0,0,1-.467,1.586c-.294.587-.557.71-.6.71a1.148,1.148,0,1,0,0,2.3A3.065,3.065,0,0,0,31.425,9.5a7.893,7.893,0,0,0,.729-2.612h3.586a1.149,1.149,0,0,1,1.148,1.148v5.816H2.3V8.036A1.149,1.149,0,0,1,3.444,6.888Zm32.3,30H3.444A1.149,1.149,0,0,1,2.3,35.739V16.148H36.887V35.739A1.149,1.149,0,0,1,35.739,36.887Zm0,0" transform="translate(0 0)"/><path class="a" d="M89.7,241H62.148A1.148,1.148,0,0,0,61,242.148V256a1.148,1.148,0,0,0,1.148,1.148H89.7A1.148,1.148,0,0,0,90.847,256V242.148A1.148,1.148,0,0,0,89.7,241Zm-1.148,6.888H83.959V243.3h4.592Zm-13.775,2.3v4.668H70.184v-4.668Zm-4.592-2.3V243.3h4.592v4.592Zm6.888,2.3h4.592v4.668H77.071Zm0-2.3V243.3h4.592v4.592ZM67.888,243.3v4.592H63.3V243.3ZM63.3,250.184h4.592v4.668H63.3Zm20.663,4.668v-4.668h4.592v4.668Zm0,0" transform="translate(-56.332 -222.556)"/></svg>