<svg xmlns="http://www.w3.org/2000/svg" width="18.501" height="19.672" viewBox="0 0 18.501 19.672"><defs><style>.a{fill:#2f97da;}</style></defs><g transform="translate(-15.25 0)"><g transform="translate(15.308 -0.001)"><g transform="translate(0 0)"><path class="a" d="M34.04,9.327V3.313a.566.566,0,0,0-.061-.249.545.545,0,0,0,.061-.184.577.577,0,0,0-.418-.554L25.553.021a.58.58,0,0,0-.316,0L17.168,2.327a.577.577,0,0,0,0,1.109l3.04.869v.682a1.709,1.709,0,0,0,.928,1.535,10.006,10.006,0,0,0,8.519,0,1.709,1.709,0,0,0,.928-1.536V4.3l2.305-.659V9.327a1.726,1.726,0,0,0-1.153,1.623V12.1a.576.576,0,0,0,.576.576h2.305a.576.576,0,0,0,.576-.576V10.95A1.726,1.726,0,0,0,34.04,9.327Z" transform="translate(-16.75 0.001)"/></g></g><g transform="translate(18.742 7.368)"><g transform="translate(0)"><path class="a" d="M116.059,192.048a10.989,10.989,0,0,1-9.536,0,2.661,2.661,0,0,1-.385-.265,5.814,5.814,0,0,0,2.817,4.737s.809.382,1.062.454v0a4.619,4.619,0,0,0,1.273.2,4.715,4.715,0,0,0,1.559-.294c.266-.095.775-.356.775-.356a5.814,5.814,0,0,0,2.818-4.737A2.672,2.672,0,0,1,116.059,192.048Z" transform="translate(-106.139 -191.783)"/></g></g><g transform="translate(22.548 13.732)"><path class="a" d="M206.529,357.574a5.718,5.718,0,0,1-1.347-.177l1.347,2.021,1.34-2.019A5.72,5.72,0,0,1,206.529,357.574Z" transform="translate(-205.182 -357.397)"/></g><g transform="translate(24.471 12.875)"><g transform="translate(0)"><path class="a" d="M257.991,335.1l-.032.018-.485.727c0,.027-2.21,3.332-2.225,3.354v2.7h7.492a.576.576,0,0,0,.576-.576A6.321,6.321,0,0,0,257.991,335.1Zm1.293,4.492h-1.153a.576.576,0,0,1,0-1.153h1.153a.576.576,0,1,1,0,1.153Z" transform="translate(-255.25 -335.096)"/></g></g><g transform="translate(15.25 12.87)"><g transform="translate(0)"><path class="a" d="M20.6,334.978l-.029-.017a6.327,6.327,0,0,0-5.32,6.226.576.576,0,0,0,.576.576h7.492v-2.7C20.707,335.141,21.24,335.943,20.6,334.978Z" transform="translate(-15.25 -334.961)"/></g></g></g></svg>