<svg xmlns="http://www.w3.org/2000/svg" width="23.223" height="25.334" viewBox="0 0 23.223 25.334"><defs><style>.a{fill:#2f97da;}</style></defs><path class="a" d="M369.835,34a.792.792,0,0,1-.792-.792,11.275,11.275,0,0,0-3.323-8.025.792.792,0,1,1,1.12-1.12,12.851,12.851,0,0,1,3.786,9.144.792.792,0,0,1-.792.792Zm0,0" transform="translate(-347.404 -22.656)"/><path class="a" d="M.792,34.023A.792.792,0,0,1,0,33.231a12.844,12.844,0,0,1,3.787-9.143.792.792,0,0,1,1.12,1.12,11.268,11.268,0,0,0-3.324,8.023.792.792,0,0,1-.792.792Zm0,0" transform="translate(0 -22.675)"/><path class="a" d="M158.626,420.75a3.963,3.963,0,0,1-3.958-3.958.792.792,0,1,1,1.583,0,2.375,2.375,0,1,0,4.75,0,.792.792,0,1,1,1.583,0A3.963,3.963,0,0,1,158.626,420.75Zm0,0" transform="translate(-147.015 -395.416)"/><path class="a" d="M40.6,83H23.179a1.848,1.848,0,0,1-1.2-3.251A7.074,7.074,0,0,0,24.5,74.333V71.389a7.389,7.389,0,0,1,14.778,0v2.943a7.073,7.073,0,0,0,2.51,5.41A1.847,1.847,0,0,1,40.6,83ZM31.888,65.584a5.812,5.812,0,0,0-5.806,5.806v2.943a8.651,8.651,0,0,1-3.072,6.618.263.263,0,0,0-.1.2.267.267,0,0,0,.264.264H40.6a.267.267,0,0,0,.264-.264.26.26,0,0,0-.093-.2,8.654,8.654,0,0,1-3.074-6.621V71.389A5.812,5.812,0,0,0,31.888,65.584Zm0,0" transform="translate(-20.277 -60.834)"/><path class="a" d="M219.46,4.75a.792.792,0,0,1-.792-.792V.792a.792.792,0,0,1,1.583,0V3.958A.792.792,0,0,1,219.46,4.75Zm0,0" transform="translate(-207.848)"/></svg>