<svg xmlns="http://www.w3.org/2000/svg" width="18.953" height="19.382" viewBox="0 0 18.953 19.382"><defs><style>.a{fill:#2f97da;}</style></defs><g transform="translate(-5.411)"><g transform="translate(5.411)"><path class="a" d="M119.45,258.682a.44.44,0,0,0-.44-.439h-1.535a.44.44,0,0,0-.44.439v1.535a.44.44,0,0,0,.44.44h1.535a.44.44,0,0,0,.44-.44v-1.535Z" transform="translate(-112.603 -247.988)"/><path class="a" d="M216.085,258.682a.44.44,0,0,0-.44-.439H214.11a.44.44,0,0,0-.44.439v1.535a.44.44,0,0,0,.44.44h1.535a.44.44,0,0,0,.44-.44Z" transform="translate(-205.401 -247.988)"/><path class="a" d="M312.713,258.682a.44.44,0,0,0-.44-.439h-1.535a.44.44,0,0,0-.44.439v1.535a.44.44,0,0,0,.44.44h1.535a.44.44,0,0,0,.44-.44Z" transform="translate(-298.192 -247.988)"/><path class="a" d="M119.45,355.315a.44.44,0,0,0-.44-.44h-1.535a.44.44,0,0,0-.44.44v1.535a.44.44,0,0,0,.44.44h1.535a.44.44,0,0,0,.44-.44v-1.535Z" transform="translate(-112.603 -340.784)"/><path class="a" d="M216.085,355.315a.44.44,0,0,0-.44-.44H214.11a.44.44,0,0,0-.44.44v1.535a.44.44,0,0,0,.44.44h1.535a.44.44,0,0,0,.44-.44Z" transform="translate(-205.401 -340.784)"/><path class="a" d="M312.713,355.315a.44.44,0,0,0-.44-.44h-1.535a.44.44,0,0,0-.44.44v1.535a.44.44,0,0,0,.44.44h1.535a.44.44,0,0,0,.44-.44v-1.535Z" transform="translate(-298.192 -340.784)"/><path class="a" d="M22.677,54.15V56.5a1.915,1.915,0,0,1-1.919,1.914H19.547A1.925,1.925,0,0,1,17.616,56.5V54.142H12.159V56.5a1.925,1.925,0,0,1-1.931,1.914H9.017A1.915,1.915,0,0,1,7.1,56.5V54.15a1.745,1.745,0,0,0-1.687,1.736V69.627a1.746,1.746,0,0,0,1.737,1.748H22.626a1.748,1.748,0,0,0,1.737-1.748V55.886A1.745,1.745,0,0,0,22.677,54.15Zm-.562,14.621a.751.751,0,0,1-.751.751H8.378a.751.751,0,0,1-.751-.751v-7.1a.751.751,0,0,1,.751-.751H21.363a.751.751,0,0,1,.751.751v7.1Z" transform="translate(-5.411 -51.992)"/><path class="a" d="M80.208,5.16h1.2a.658.658,0,0,0,.658-.658V.658A.658.658,0,0,0,81.406,0h-1.2a.658.658,0,0,0-.658.658V4.5A.658.658,0,0,0,80.208,5.16Z" transform="translate(-76.606)"/><path class="a" d="M345.116,5.16h1.2a.658.658,0,0,0,.658-.658V.658A.658.658,0,0,0,346.314,0h-1.2a.658.658,0,0,0-.658.658V4.5A.658.658,0,0,0,345.116,5.16Z" transform="translate(-330.996)"/></g></g></svg>