<svg xmlns="http://www.w3.org/2000/svg" width="19.534" height="16.278" viewBox="0 0 19.534 16.278"><defs><style>.a{fill:#2f97da;}</style></defs><path class="a" d="M17.3,1.628H13.022v-.2A1.426,1.426,0,0,0,11.6,0H7.936A1.426,1.426,0,0,0,6.511,1.424v.2H2.238A2.24,2.24,0,0,0,0,3.866V14.04a2.24,2.24,0,0,0,2.238,2.238H17.3a2.24,2.24,0,0,0,2.238-2.238V3.866A2.24,2.24,0,0,0,17.3,1.628ZM11.4,3.256H8.139V1.628h3.256ZM6.1,5.7A2.035,2.035,0,1,1,4.07,7.732,2.038,2.038,0,0,1,6.1,5.7Zm3.663,7.529a.611.611,0,0,1-.61.61h-6.1a.611.611,0,0,1-.61-.61v-.407A2.24,2.24,0,0,1,4.68,10.581H7.529a2.24,2.24,0,0,1,2.238,2.238Zm6.715.61H12.005a.61.61,0,1,1,0-1.221h4.476a.61.61,0,1,1,0,1.221Zm0-3.256H12.005a.61.61,0,1,1,0-1.221h4.476a.61.61,0,1,1,0,1.221Zm0-3.256H12.005a.61.61,0,0,1,0-1.221h4.476a.61.61,0,1,1,0,1.221Zm0,0" transform="translate(0 0)"/></svg>