<svg xmlns="http://www.w3.org/2000/svg" width="18.505" height="17.025" viewBox="0 0 18.505 17.025"><defs><style>.a{fill:#fff;}</style></defs><path class="a" d="M15.962-1.332H2.545A2.547,2.547,0,0,0,0,1.212V9.423a2.547,2.547,0,0,0,2.535,2.544v3.726l5.355-3.726h8.071a2.547,2.547,0,0,0,2.544-2.544V1.212a2.547,2.547,0,0,0-2.544-2.544Zm1.46,10.755a1.462,1.462,0,0,1-1.46,1.46H7.55L3.62,13.618V10.883H2.545a1.462,1.462,0,0,1-1.46-1.46V1.212a1.461,1.461,0,0,1,1.46-1.46H15.962a1.461,1.461,0,0,1,1.46,1.46Zm0,0" transform="translate(-0.001 1.332)"/><path class="a" d="M171.293,131.172h8.6v1.084h-8.6Zm0,0" transform="translate(-166.34 -127.341)"/><path class="a" d="M171.293,211.172h8.6v1.084h-8.6Zm0,0" transform="translate(-166.34 -205.027)"/><path class="a" d="M171.293,291.172h8.6v1.084h-8.6Zm0,0" transform="translate(-166.34 -282.714)"/></svg>