<svg xmlns="http://www.w3.org/2000/svg" width="43.535" height="59.729" viewBox="0 0 43.535 59.729"><defs><style>.a{fill:#fff;}</style></defs><g transform="translate(-5.55 6.135)"><path class="a" d="M165.876,65.08a.906.906,0,1,0-1.812,0A12.621,12.621,0,0,1,154.1,77.471V74.7a10.892,10.892,0,0,0,8.154-10.528V50.584a10.872,10.872,0,1,0-21.745,0v13.59A10.892,10.892,0,0,0,148.661,74.7v2.769a12.62,12.62,0,0,1-9.966-12.392.906.906,0,0,0-1.812,0,14.423,14.423,0,0,0,11.778,14.239v2.07h-3.624a4.536,4.536,0,0,0-4.53,4.53.906.906,0,0,0,.906.906h19.933a.905.905,0,0,0,.906-.906,4.535,4.535,0,0,0-4.53-4.53H154.1V79.318A14.424,14.424,0,0,0,165.876,65.08Zm-23.512,0h4.485a.906.906,0,1,0,0-1.812h-4.53V60.55h4.53a.906.906,0,1,0,0-1.812h-4.53V56.02h4.53a.906.906,0,1,0,0-1.812h-4.53V51.489h4.53a.906.906,0,1,0,0-1.812h-4.485a9.061,9.061,0,0,1,18.03,0h-4.485a.906.906,0,1,0,0,1.812h4.53v2.718h-4.53a.906.906,0,1,0,0,1.812h4.53v2.718h-4.53a.906.906,0,1,0,0,1.812h4.53v2.718h-4.53a.906.906,0,1,0,0,1.812h4.485a9.079,9.079,0,0,1-7.385,8h0a9.051,9.051,0,0,1-10.644-8ZM157.721,83.2a2.723,2.723,0,0,1,2.563,1.812H142.474a2.724,2.724,0,0,1,2.563-1.812h4.53a.906.906,0,0,0,.906-.906V75.006c.3.025.6.041.906.041s.607-.016.906-.041v7.289a.906.906,0,0,0,.906.906Zm0,0" transform="translate(-119.101 -33.23)"/><path class="a" d="M307.2,28.941a3.692,3.692,0,0,1,2.68,3.529.907.907,0,0,0,.906.892h.014a.906.906,0,0,0,.892-.92A5.5,5.5,0,0,0,307.71,27.2a.906.906,0,1,0-.513,1.737Zm0,0" transform="translate(-266.247 -22.351)"/><path class="a" d="M317.609,3.379A9.238,9.238,0,0,0,312.461.024a.906.906,0,0,0-.426,1.762A7.369,7.369,0,0,1,317.68,8.9a.905.905,0,0,0,.906.9h.008a.906.906,0,0,0,.9-.914,9.133,9.133,0,0,0-1.883-5.507Zm0,0" transform="translate(-270.406 1.211)"/><path class="a" d="M87.911,5.845l-2.67,2.672A.906.906,0,1,0,86.522,9.8l2.67-2.672a.906.906,0,1,0-1.282-1.281Zm0,0" transform="translate(-74.083 -3.629)"/><path class="a" d="M47.658,46.1l-2.671,2.672a.906.906,0,1,0,1.281,1.281l2.671-2.672A.906.906,0,0,0,47.658,46.1Zm0,0" transform="translate(-39.171 -38.537)"/><path class="a" d="M46.268,5.845a.906.906,0,0,0-1.281,1.281L47.658,9.8a.906.906,0,0,0,1.281-1.281Zm0,0" transform="translate(-39.171 -3.629)"/><path class="a" d="M86.522,46.1a.906.906,0,0,0-1.281,1.281l2.67,2.672a.906.906,0,0,0,1.282-1.281Zm0,0" transform="translate(-74.083 -38.537)"/><path class="a" d="M3.972,203.551A3.624,3.624,0,1,0,7.6,207.175a3.628,3.628,0,0,0-3.624-3.624Zm0,5.436a1.812,1.812,0,1,1,1.812-1.812A1.815,1.815,0,0,1,3.972,208.987Zm0,0" transform="translate(24.217 -209.686)"/><path class="a" d="M84.988,143.473a1.359,1.359,0,1,1-1.359-1.359A1.359,1.359,0,0,1,84.988,143.473Zm0,0" transform="translate(-71.736 -122.042)"/></g></svg>