<svg xmlns="http://www.w3.org/2000/svg" width="42.491" height="42.491" viewBox="0 0 42.491 42.491"><defs><style>.a{fill:#fff;}</style></defs><g transform="translate(15.602 4.647)"><path class="a" d="M189.417,56.243a.829.829,0,1,0,.243.587A.836.836,0,0,0,189.417,56.243Z" transform="translate(-188 -56)"/></g><g transform="translate(9.202 4.647)"><path class="a" d="M115.039,56H111.7a.83.83,0,1,0,0,1.66h3.334a.83.83,0,0,0,0-1.66Z" transform="translate(-110.875 -56)"/></g><g transform="translate(9.202 9.295)"><path class="a" d="M115.7,112h-4a.83.83,0,1,0,0,1.66h4a.83.83,0,1,0,0-1.66Z" transform="translate(-110.875 -112)"/></g><path class="a" d="M42.171,17.272h0l-5.477-4.265L36.682,13v-.881a.83.83,0,1,0-1.66,0V23.376c0,.005,0,.01,0,.015l-6.867,6.867-.8-.722a9.074,9.074,0,0,0-4.38-2.2l2.155-2.155a.83.83,0,0,0,0-1.174l-2.788-2.788L34.5,16.044a.83.83,0,0,0,.261-1.35l-3.967-3.967a3.529,3.529,0,0,0-4.85-4.85L21.974,1.91a.83.83,0,0,0-1.35.262L15.031,15.307l-3.01,3.01a4.478,4.478,0,1,0,6.333,6.333l.317-.317,2.843,2.843c-.089,0-.178,0-.268,0a9.076,9.076,0,0,0-6.115,2.363l-.8.722L7.468,23.39c0-.005,0-.01,0-.015V1.66h9.294a.83.83,0,1,0,0-1.66H6.639a.83.83,0,0,0-.83.83V12.865l-.022.016L.31,17.279h0a.828.828,0,0,0-.31.647V38.259a4.237,4.237,0,0,0,4.233,4.233H38.259a4.237,4.237,0,0,0,4.233-4.233V17.926A.828.828,0,0,0,42.171,17.272ZM36.682,15.1,40.41,18l-3.728,3.728Zm-8.9-8.079a1.865,1.865,0,0,1,1.769,2.463L27.184,7.12A1.868,1.868,0,0,1,27.779,7.021ZM21.67,3.953l3.614,3.614h0L29.1,11.383h0L32.716,15l-1.762.751L20.919,5.715ZM20.218,7.362l9.09,9.09-8.225,3.507L16.715,15.59ZM17.181,23.477a2.819,2.819,0,1,1-3.986-3.986l2.537-2.537,3.986,3.986Zm2.664-.317,1.047-1.047L23.375,24.6l-1.047,1.047ZM5.809,14.992v6.74L2.071,17.994ZM3.1,40.466a.847.847,0,0,0-.066.067A2.575,2.575,0,0,1,1.66,38.259V19.93L13.105,31.375Zm2.066.365,2.741-2.49H14a.83.83,0,0,0,0-1.66H9.732l6.514-5.918a7.406,7.406,0,0,1,10,0L37.327,40.831Zm35.667-2.573a2.575,2.575,0,0,1-1.373,2.275.835.835,0,0,0-.066-.067L29.386,31.375,40.831,19.93Z"/><g transform="translate(31.702 0.033)"><path class="a" d="M386.769.639a.83.83,0,0,0-1.174,0l-3.353,3.352a.83.83,0,1,0,1.174,1.174l3.352-3.352A.83.83,0,0,0,386.769.639Z" transform="translate(-382 -0.396)"/></g><g transform="translate(28.583)"><path class="a" d="M345.242,0a.83.83,0,0,0-.83.83V2.5a.83.83,0,0,0,1.66,0V.83A.83.83,0,0,0,345.242,0Z" transform="translate(-344.412)"/></g><g transform="translate(33.356 6.434)"><path class="a" d="M404.482,77.521h-1.723a.83.83,0,1,0,0,1.66h1.723a.83.83,0,0,0,0-1.66Z" transform="translate(-401.929 -77.521)"/></g><g transform="translate(16.57 36.682)"><path class="a" d="M201.077,442.243a.829.829,0,1,0,.243.587A.838.838,0,0,0,201.077,442.243Z" transform="translate(-199.66 -442)"/></g></svg>