<svg xmlns="http://www.w3.org/2000/svg" width="40" height="43" viewBox="0 0 40 43"><defs><style>.a{fill:#2f97da;}</style></defs><g transform="translate(-12 -13)"><path class="a" d="M23.414,21.414,30,14.828V38a2,2,0,0,0,4,0V14.828l6.586,6.586a2,2,0,0,0,2.828-2.828l-10-10a2,2,0,0,0-2.828,0l-10,10a2,2,0,1,0,2.828,2.828Z" transform="translate(0 5)"/><path class="a" d="M50,40a2,2,0,0,0-2,2v8a2,2,0,0,1-2,2H18a2,2,0,0,1-2-2V42a2,2,0,0,0-4,0v8a6.006,6.006,0,0,0,6,6H46a6.006,6.006,0,0,0,6-6V42A2,2,0,0,0,50,40Z"/></g></svg>