<svg xmlns="http://www.w3.org/2000/svg" width="16.214" height="25.334" viewBox="0 0 16.214 25.334"><defs><style>.a{fill:#2f97da;}</style></defs><g transform="translate(-78.336)"><g transform="translate(78.336 12.19)"><g transform="translate(0)"><path class="a" d="M94.55,210.3a.894.894,0,0,0-1.788,0,6.319,6.319,0,1,1-12.637,0,.894.894,0,0,0-1.788,0,8.106,8.106,0,0,0,7.213,8.077v2.384H82.3a.894.894,0,1,0,0,1.788h8.286a.894.894,0,0,0,0-1.788H87.337v-2.384A8.106,8.106,0,0,0,94.55,210.3Z" transform="translate(-78.336 -209.408)"/></g></g><g transform="translate(81.466)"><g transform="translate(0)"><path class="a" d="M137.073,0A4.986,4.986,0,0,0,132.1,4.977v8.077a4.977,4.977,0,1,0,9.955.03V4.977A4.986,4.986,0,0,0,137.073,0Z" transform="translate(-132.096)"/></g></g></g></svg>