<svg xmlns="http://www.w3.org/2000/svg" width="19.285" height="19.313" viewBox="0 0 19.285 19.313"><defs><style>.a{fill:#fff;}</style></defs><g transform="translate(0 0)"><path class="a" d="M15.594,38.252a1.9,1.9,0,0,0-1.378-.632,1.964,1.964,0,0,0-1.394.628l-1.288,1.284c-.106-.057-.212-.11-.314-.163-.147-.073-.285-.143-.4-.216A14,14,0,0,1,7.462,36.1a8.259,8.259,0,0,1-1.1-1.736c.334-.306.644-.624.946-.929.114-.114.228-.232.342-.346a1.87,1.87,0,0,0,0-2.821L6.537,29.151c-.126-.126-.257-.257-.379-.387-.245-.253-.5-.514-.766-.758a1.929,1.929,0,0,0-1.365-.6,2,2,0,0,0-1.386.6l-.008.008-1.386,1.4a2.982,2.982,0,0,0-.885,1.9,7.145,7.145,0,0,0,.522,3.024A17.55,17.55,0,0,0,4,39.532a19.182,19.182,0,0,0,6.387,5,9.952,9.952,0,0,0,3.587,1.06c.086,0,.175.008.257.008a3.071,3.071,0,0,0,2.352-1.011c0-.008.012-.012.016-.02a9.267,9.267,0,0,1,.713-.738c.175-.167.355-.342.53-.526a2.033,2.033,0,0,0,.615-1.41,1.959,1.959,0,0,0-.628-1.4Zm1.459,4.292s0,0,0,0c-.159.171-.322.326-.5.5a10.718,10.718,0,0,0-.787.815,1.965,1.965,0,0,1-1.533.648c-.061,0-.126,0-.187,0a8.841,8.841,0,0,1-3.179-.954,18.106,18.106,0,0,1-6.016-4.712,16.548,16.548,0,0,1-2.935-4.887A5.82,5.82,0,0,1,1.462,31.4a1.871,1.871,0,0,1,.562-1.211l1.39-1.39a.927.927,0,0,1,.62-.289.872.872,0,0,1,.6.285l.012.012c.249.232.485.473.734.73.126.13.257.261.387.4l1.113,1.113a.778.778,0,0,1,0,1.264c-.118.118-.232.236-.351.351-.342.351-.668.677-1.023.995-.008.008-.016.012-.02.02a.831.831,0,0,0-.212.925l.012.037A8.934,8.934,0,0,0,6.6,36.781l0,0a14.961,14.961,0,0,0,3.62,3.293,5.565,5.565,0,0,0,.5.273c.147.073.285.143.4.216.016.008.033.02.049.029a.884.884,0,0,0,.4.1.872.872,0,0,0,.62-.281l1.394-1.394a.922.922,0,0,1,.615-.306.83.83,0,0,1,.587.3l.008.008,2.246,2.246A.806.806,0,0,1,17.053,42.545Z" transform="translate(-0.344 -26.289)"/><path class="a" d="M245.4,87.017a5.246,5.246,0,0,1,4.272,4.272.547.547,0,0,0,.542.457.728.728,0,0,0,.094-.008.551.551,0,0,0,.452-.636,6.343,6.343,0,0,0-5.168-5.168.553.553,0,0,0-.636.448A.544.544,0,0,0,245.4,87.017Z" transform="translate(-234.974 -82.423)"/><path class="a" d="M257.925,8.519A10.445,10.445,0,0,0,249.414.009a.549.549,0,1,0-.179,1.084A9.329,9.329,0,0,1,256.841,8.7a.547.547,0,0,0,.542.457.729.729,0,0,0,.094-.008A.54.54,0,0,0,257.925,8.519Z" transform="translate(-238.649 0)"/></g></svg>