<svg xmlns="http://www.w3.org/2000/svg" width="18.025" height="18.179" viewBox="0 0 18.025 18.179"><defs><style>.a{fill:#2f97da;}</style></defs><g transform="translate(-2.006)"><g transform="translate(2.006)"><path class="a" d="M16.717,11.554a3.291,3.291,0,0,0-2.587,1.269L8.5,9.946a3.291,3.291,0,0,0,.127-.857A3.264,3.264,0,0,0,8.48,8.16l5.6-2.864a3.3,3.3,0,1,0-.674-1.985,3.277,3.277,0,0,0,.127.86L7.909,7.048a3.31,3.31,0,1,0,.049,4.024l5.6,2.864a3.272,3.272,0,0,0-.151.932,3.313,3.313,0,1,0,3.312-3.313Z" transform="translate(-2.006)"/></g></g></svg>