<svg xmlns="http://www.w3.org/2000/svg" width="34.619" height="41.494" viewBox="0 0 34.619 41.494"><defs><style>.a{fill:#fff;}</style></defs><path class="a" d="M34.006,36.624a.614.614,0,0,0,.614-.614v-.384a7.181,7.181,0,0,0-5.245-6.9l-6.721-1.867L20.87,25.076V22.44a8.34,8.34,0,0,0,4.541-5.663h.82a2.253,2.253,0,0,0,2.251-2.251V13.381a2.244,2.244,0,0,0-.737-1.664V1.227h2.783V7.212a2.087,2.087,0,0,0,0,3.989v1.524a.614.614,0,1,0,1.227,0V11.2a2.087,2.087,0,0,0,0-3.989V1.227h.614a.614.614,0,0,0,0-1.228H2.251a.614.614,0,1,0,0,1.228H6.875V2.458a.614.614,0,0,0,1.228,0V1.227H26.517v7.2H8.1v-3.1a.614.614,0,1,0-1.228,0v6.393a2.245,2.245,0,0,0-.737,1.664v1.146a2.254,2.254,0,0,0,2.251,2.251h.82A8.339,8.339,0,0,0,13.75,22.44v2.635l-1.784,1.784L5.245,28.727A7.181,7.181,0,0,0,0,35.627v.384a.614.614,0,0,0,1.228,0v-.384A5.95,5.95,0,0,1,5.573,29.91l4.048-1.124L11.9,35.991a.618.618,0,0,0,.141.238l3.842,4.037H7.448V38.343a.614.614,0,1,0-1.228,0v1.923H1.228v-1.4A.614.614,0,1,0,0,38.87v2.01a.614.614,0,0,0,.614.614H34.006a.614.614,0,0,0,.614-.614V38.87a.614.614,0,1,0-1.228,0v1.4H28.4V38.343a.614.614,0,1,0-1.228,0v1.923h-8.43l3.842-4.037a.615.615,0,0,0,.141-.238L25,28.785l4.048,1.125a5.949,5.949,0,0,1,4.345,5.717v.384a.614.614,0,0,0,.614.614ZM31.141,10.066A.86.86,0,1,1,32,9.207.86.86,0,0,1,31.141,10.066ZM16.258,33.882h2.1l.827,4.133L17.31,39.989l-1.879-1.974Zm2.327-1.228h-2.55L15,31.457l2.313-2.313,2.313,2.313Zm1.676-2.3-2.082-2.082L20.256,26.2l1.274,1.274Zm6.993-15.832a1.024,1.024,0,0,1-1.023,1.023h-.614V12.358h.614a1.024,1.024,0,0,1,1.023,1.023Zm-.737-3.378a2.252,2.252,0,0,0-.286-.019h-.614V9.657h.9ZM8.1,9.657H9V11.13H8.389a2.253,2.253,0,0,0-.287.019ZM9,15.55H8.389a1.024,1.024,0,0,1-1.023-1.023V13.381a1.024,1.024,0,0,1,1.023-1.023H9Zm1.228-.614V9.657H24.389v5.279a7.079,7.079,0,1,1-14.158,0Zm7.079,8.307a8.287,8.287,0,0,0,2.333-.334v2.166L17.31,27.408l-2.333-2.333V22.909A8.275,8.275,0,0,0,17.31,23.243ZM14.363,26.2l2.078,2.078-2.082,2.082-1.27-2.887ZM10.8,28.456l1.226-.341L13.6,31.67a.621.621,0,0,0,.034.066l.01.017c.009.014.018.027.028.04l.016.02.012.016,1.4,1.614-.7,3.485-1.373-1.443ZM21.6,35.485l-1.373,1.443-.7-3.485,1.4-1.614.012-.016.016-.021c.009-.013.019-.026.027-.04l.011-.017a.678.678,0,0,0,.034-.066l1.564-3.555,1.226.341Zm0,0" transform="translate(0 0)"/></svg>