<svg xmlns="http://www.w3.org/2000/svg" width="22.092" height="18.74" viewBox="0 0 22.092 18.74"><defs><style>.a{fill:#2f97da;}</style></defs><g transform="translate(0 -38.84)"><g transform="translate(17.195 48.958)"><g transform="translate(0 0)"><path class="a" d="M400.2,273.32h-1.709a4.444,4.444,0,0,1,.269,1.528V281.3a1.9,1.9,0,0,1-.11.638h2.825a1.916,1.916,0,0,0,1.914-1.913v-3.52A3.193,3.193,0,0,0,400.2,273.32Z" transform="translate(-398.494 -273.32)"/></g></g><g transform="translate(0 48.958)"><path class="a" d="M4.628,274.849a4.444,4.444,0,0,1,.269-1.528H3.189A3.193,3.193,0,0,0,0,276.51v3.52a1.916,1.916,0,0,0,1.913,1.913H4.738a1.9,1.9,0,0,1-.11-.638Z" transform="translate(0 -273.321)"/></g><g transform="translate(5.904 47.296)"><g transform="translate(0 0)"><path class="a" d="M143.924,234.815h-3.906A3.193,3.193,0,0,0,136.829,238v6.457a.638.638,0,0,0,.638.638h9.009a.638.638,0,0,0,.638-.638V238A3.193,3.193,0,0,0,143.924,234.815Z" transform="translate(-136.829 -234.815)"/></g></g><g transform="translate(7.211 38.84)"><g transform="translate(0 0)"><path class="a" d="M170.949,38.84a3.835,3.835,0,1,0,3.835,3.835A3.84,3.84,0,0,0,170.949,38.84Z" transform="translate(-167.114 -38.84)"/></g></g><g transform="translate(1.443 42.415)"><g transform="translate(0 0)"><path class="a" d="M36.311,121.689a2.867,2.867,0,1,0,2.868,2.868A2.872,2.872,0,0,0,36.311,121.689Z" transform="translate(-33.443 -121.689)"/></g></g><g transform="translate(14.913 42.415)"><g transform="translate(0 0)"><path class="a" d="M348.475,121.689a2.868,2.868,0,1,0,2.868,2.868A2.872,2.872,0,0,0,348.475,121.689Z" transform="translate(-345.607 -121.689)"/></g></g></g></svg>