<svg xmlns="http://www.w3.org/2000/svg" width="49.688" height="49.688" viewBox="0 0 49.688 49.688"><defs><style>.a{fill:#fff;}</style></defs><g transform="translate(-1 -1)"><path class="a" d="M44.158,15.965,54.593,9.443a2.659,2.659,0,0,0,1.257-2.269V6.881A2.676,2.676,0,0,0,51.773,4.6L43.738,9.547a7.181,7.181,0,0,1-3.155,1.027,5.613,5.613,0,1,0-7.415.451A8.83,8.83,0,0,0,27,19.432v6.411a4.012,4.012,0,0,0,4.007,4.007V44.276H27.8v6.411H55.851V37.865H48.638V26.645a4.012,4.012,0,0,0-4.007-4.007h-1.6V18a2.391,2.391,0,0,1,1.13-2.039ZM32.61,6.61a4.007,4.007,0,1,1,4.007,4.007A4.012,4.012,0,0,1,32.61,6.61ZM54.248,39.468v9.617H29.4V45.879h8.014V42.673h4.808V39.468Zm-16.83,1.6V29.049h4.808v8.816h-1.6v3.206Zm7.213-16.83a2.407,2.407,0,0,1,2.4,2.4v11.22H43.83V29.049a1.6,1.6,0,0,0-1.6-1.6H37.418V24.241h-1.6V44.276H32.61V16.227h-1.6V28.248a2.407,2.407,0,0,1-2.4-2.4V19.432a7.221,7.221,0,0,1,7.213-7.213h4.143a8.807,8.807,0,0,0,4.62-1.308l8.035-4.945a1.073,1.073,0,0,1,1.634.914v.293a1.066,1.066,0,0,1-.5.91L43.309,14.606A3.984,3.984,0,0,0,41.425,18v6.237Z" transform="translate(-5.163)"/><path class="a" d="M13.848,19.188a5.61,5.61,0,1,0-6.463,0A9.624,9.624,0,0,0,1,28.234v6.411a3.209,3.209,0,0,0,3.206,3.206h.8v11.22a3.192,3.192,0,0,0,5.61,2.1,3.192,3.192,0,0,0,5.61-2.1V37.851h.8a3.209,3.209,0,0,0,3.206-3.206V28.234A9.624,9.624,0,0,0,13.848,19.188ZM6.61,14.61a4.007,4.007,0,1,1,4.007,4.007A4.012,4.012,0,0,1,6.61,14.61Zm5.745,5.805-1.787,2.5L8.553,20.5a7.785,7.785,0,0,1,3.8-.084Zm6.276,14.23a1.6,1.6,0,0,1-1.6,1.6h-.8V25.028h-1.6V49.071a1.6,1.6,0,1,1-3.206,0V33.042h-1.6V49.071a1.6,1.6,0,1,1-3.206,0V25.028h-1.6v11.22h-.8a1.6,1.6,0,0,1-1.6-1.6V28.234a8.017,8.017,0,0,1,4.369-7.129l3.693,4.432,3.276-4.586a8.02,8.02,0,0,1,4.69,7.283Z" transform="translate(0 -1.589)"/><path class="a" d="M57,57h1.6v1.6H57Z" transform="translate(-11.121 -11.121)"/><path class="a" d="M53,57h1.6v1.6H53Z" transform="translate(-10.327 -11.121)"/><path class="a" d="M49,57h1.6v1.6H49Z" transform="translate(-9.532 -11.121)"/></g></svg>