<svg xmlns="http://www.w3.org/2000/svg" width="125.333" height="94" viewBox="0 0 125.333 94">
  <path id="Icon_awesome-image" data-name="Icon awesome-image" d="M113.583,98.5H11.75A11.75,11.75,0,0,1,0,86.75V16.25A11.75,11.75,0,0,1,11.75,4.5H113.583a11.75,11.75,0,0,1,11.75,11.75v70.5A11.75,11.75,0,0,1,113.583,98.5ZM27.417,18.208A13.708,13.708,0,1,0,41.125,31.917,13.708,13.708,0,0,0,27.417,18.208ZM15.667,82.833h94V55.417L88.244,33.994a2.938,2.938,0,0,0-4.154,0L50.917,67.167l-13.59-13.59a2.938,2.938,0,0,0-4.154,0L15.667,71.083Z" transform="translate(0 -4.5)" fill="#3294d1"/>
</svg>
